<svg width="1788" height="366" viewBox="0 0 1788 366" fill="none" xmlns="http://www.w3.org/2000/svg">
<path fill-rule="evenodd" clip-rule="evenodd" d="M169.01 0.52155C168.431 1.00485 160.798 7.15188 151.933 14.2734C149.757 16.0218 146.405 18.72 144.484 20.2691C142.564 21.8182 138.859 24.8 136.251 26.8952C127.979 33.5402 117.851 41.6795 111.986 46.3959C106.02 51.1932 96.2889 59.0138 85.9411 67.3275C82.5484 70.0534 77.7299 73.9279 75.2334 75.9374C68.9673 80.9815 63.9587 85.0062 59.242 88.788C57.0399 90.5536 54.9973 92.2005 54.7028 92.4478C54.4081 92.6952 53.1721 93.6944 51.9558 94.6682C49.6453 96.5182 44.8794 100.347 35.0796 108.226C31.8789 110.799 27.4794 114.329 25.303 116.07C23.1265 117.812 21.2683 119.344 21.1738 119.476C21.079 119.607 21.0267 126.074 21.0574 133.846L21.113 147.976L24.4883 150.725C26.3447 152.236 29.9061 155.114 32.4027 157.12C34.8992 159.126 38.6059 162.118 40.6397 163.769C42.6734 165.42 45.9649 168.074 47.9539 169.667C49.9432 171.261 51.6081 172.679 51.6539 172.818C51.6998 172.957 50.8176 173.855 49.6935 174.813C45.1346 178.699 38.7204 184.188 37.4073 185.327C36.6392 185.993 32.2397 189.744 27.6307 193.662C23.0218 197.58 18.9366 201.061 18.5525 201.396C18.1684 201.732 13.9 205.38 9.06687 209.502L0.279575 216.997V226.79C0.279575 232.176 0.216737 238.607 0.139688 241.082L0 245.581L3.30754 248.231C5.12645 249.688 6.73468 250.992 6.8811 251.128C7.02751 251.264 8.43651 252.407 10.0124 253.667C11.5883 254.927 13.0022 256.076 13.1544 256.222C13.3069 256.367 15.4216 258.098 17.8542 260.069C20.2867 262.04 23.5339 264.682 25.0702 265.939C29.5991 269.647 31.9162 271.537 38.9204 277.238C42.5691 280.208 47.7996 284.47 50.5438 286.71C53.2878 288.949 56.7594 291.773 58.2582 292.984C59.7568 294.195 66.4154 299.616 73.0549 305.031C79.6941 310.446 90.5734 319.309 97.2308 324.725C103.888 330.142 109.387 334.638 109.451 334.718C109.515 334.797 110.414 335.531 111.449 336.349C113.065 337.626 118.045 341.679 130.983 352.245C132.52 353.499 135.191 355.667 136.919 357.063C138.647 358.458 140.114 359.657 140.178 359.728C140.242 359.799 140.818 360.271 141.458 360.776C142.098 361.281 143.819 362.686 145.282 363.899C146.744 365.112 147.979 365.992 148.025 365.853C148.071 365.715 148.253 365.406 148.429 365.166C148.735 364.75 148.763 364.759 149.04 365.365C149.2 365.714 149.413 366 149.514 366C149.615 366 150.305 365.499 151.048 364.886C151.791 364.274 154.075 362.425 156.123 360.777C158.171 359.129 160.057 357.607 160.313 357.394C161.282 356.59 169.973 349.562 172.65 347.418C175.694 344.98 184.111 338.184 189.632 333.706C191.547 332.153 194.54 329.735 196.284 328.333C198.028 326.931 199.918 325.402 200.485 324.935C201.051 324.469 204.447 321.724 208.032 318.836C211.617 315.949 214.998 313.219 215.547 312.771C216.095 312.322 218.871 310.079 221.715 307.784C227.211 303.352 233.397 298.353 243.094 290.508C246.375 287.854 250.293 284.691 251.801 283.48C253.309 282.269 255.652 280.376 257.009 279.273C258.366 278.171 261.266 275.824 263.455 274.058C268.678 269.843 276.438 263.573 283.83 257.593C287.111 254.938 291.03 251.776 292.54 250.565C294.05 249.354 295.896 247.863 296.643 247.253L298 246.144L297.99 231.723L297.981 217.302L294.358 214.404C292.365 212.811 289.509 210.516 288.01 209.305C281.635 204.152 271.816 196.232 268.903 193.891C267.175 192.502 264.923 190.676 263.898 189.834C262.874 188.992 260.36 186.957 258.312 185.312C256.263 183.667 253.697 181.597 252.609 180.711C251.52 179.826 249.164 177.925 247.371 176.486C245.579 175.047 242.525 172.586 240.586 171.015C238.646 169.445 235.766 167.118 234.186 165.843C232.606 164.568 228.17 160.987 224.328 157.886C220.486 154.784 214.477 149.934 210.974 147.107C207.471 144.281 203.019 140.684 201.081 139.114C199.143 137.545 196.929 135.754 196.161 135.134C195.392 134.514 193.495 132.982 191.944 131.729C190.394 130.476 187.369 128.042 185.222 126.321C183.076 124.6 181.203 123.083 181.059 122.951C180.915 122.818 178.859 121.152 176.491 119.249C171.287 115.067 162.775 108.201 160.577 106.412C159.698 105.697 156.972 103.495 154.518 101.519C152.065 99.5429 149.301 97.3142 148.376 96.5664L146.694 95.2067L144.192 97.368C142.817 98.5566 140.696 100.423 139.48 101.516C138.263 102.608 136.011 104.589 134.475 105.918C132.939 107.247 130.686 109.228 129.47 110.32C128.254 111.412 126.821 112.688 126.287 113.155L125.314 114.004L130.327 118.25C133.083 120.586 135.574 122.705 135.861 122.96C136.149 123.215 137.571 124.415 139.021 125.626C140.471 126.837 142.425 128.48 143.362 129.277C147.673 132.942 148.65 133.769 151.235 135.941C152.751 137.216 156.252 140.174 159.015 142.514C161.777 144.855 165.598 148.088 167.505 149.7C169.412 151.312 171.771 153.308 172.748 154.137C173.725 154.966 176.193 157.052 178.232 158.773C187.181 166.326 190.061 168.76 192.902 171.174C194.566 172.589 197.708 175.249 199.885 177.087C204.076 180.625 207.675 183.673 208.913 184.734C210.936 186.465 216.647 191.3 218.493 192.844C219.638 193.802 221.209 195.123 221.985 195.779C222.761 196.435 224.244 197.687 225.281 198.561C231.997 204.218 234.583 206.407 234.685 206.521C234.749 206.591 235.427 207.169 236.192 207.803C236.956 208.438 239.055 210.209 240.856 211.739C242.656 213.269 246.477 216.502 249.346 218.924C252.215 221.347 256.063 224.601 257.895 226.157C259.729 227.713 261.956 229.582 262.844 230.31C263.733 231.038 264.407 231.719 264.342 231.824C264.277 231.929 262.003 233.86 259.289 236.116C256.575 238.371 254.302 240.279 254.238 240.355C254.174 240.431 251.66 242.535 248.652 245.03C245.643 247.526 241.505 250.968 239.457 252.678C237.408 254.389 232.852 258.184 229.331 261.112C225.81 264.04 222.877 266.49 222.813 266.556C222.638 266.735 220.565 268.47 213.386 274.446C209.801 277.429 205.664 280.88 204.191 282.115C202.719 283.35 200.048 285.58 198.256 287.071C193.088 291.369 185.912 297.355 183.125 299.692C178.815 303.306 178.548 303.53 175.994 305.648C174.632 306.779 170.084 310.571 165.887 314.077C151.039 326.482 148.673 328.439 148.515 328.444C148.427 328.447 147.223 327.487 145.838 326.312C144.453 325.137 141.592 322.708 139.48 320.914C133.178 315.561 125.183 308.796 117.021 301.908C114.604 299.868 111.1 296.909 109.235 295.332C107.37 293.755 105.32 292.023 104.68 291.483C104.039 290.943 101.63 288.904 99.3257 286.952C97.0213 285 94.612 282.961 93.9719 282.421C93.3317 281.881 90.9137 279.839 88.5983 277.882C86.2828 275.925 82.7807 272.968 80.8156 271.311C78.8505 269.653 75.7672 267.046 73.9639 265.516C68.438 260.828 62.8909 256.129 60.569 254.169C59.3532 253.143 58.0438 252.029 57.6593 251.694C57.275 251.359 55.5534 249.899 53.8336 248.449C47.8415 243.397 44.0875 240.225 39.7414 236.541C37.3352 234.501 34.6734 232.269 33.8263 231.581C32.9792 230.893 32.2863 230.255 32.2863 230.163C32.2863 230.07 34.4336 228.257 37.0582 226.134C47.7426 217.488 59.488 207.99 64.8416 203.668C70.2334 199.314 72.5176 197.464 74.8231 195.582C76.1976 194.461 77.3673 193.543 77.422 193.543C77.4769 193.543 79.9136 195.481 82.8371 197.849C90.6607 204.188 97.7885 209.948 103.05 214.183C105.611 216.244 108.293 218.415 109.011 219.007C109.728 219.599 111.551 221.074 113.061 222.286C114.571 223.497 118.75 226.869 122.348 229.78C133.664 238.936 138.985 243.234 143.786 247.099C146.346 249.16 149.029 251.33 149.746 251.922C150.464 252.514 152.287 253.99 153.797 255.201C155.307 256.412 159.119 259.491 162.269 262.043C168.767 267.309 169.72 268.051 169.834 267.924C170.017 267.719 171.742 264.418 175.21 257.635C177.23 253.682 179.917 248.446 181.179 245.999C182.441 243.552 183.474 241.463 183.474 241.358C183.474 241.253 182.715 240.532 181.787 239.757C174.302 233.504 165.239 225.941 159.382 221.06C155.541 217.86 150.461 213.622 148.092 211.642C142.256 206.765 137.969 203.186 136.582 202.033C135.948 201.507 134.062 199.928 132.392 198.524C130.721 197.12 126.85 193.887 123.789 191.338C117.334 185.963 108.205 178.348 97.8127 169.671C93.7798 166.304 87.2854 160.886 83.3806 157.632C79.4758 154.377 74.8668 150.531 73.1384 149.085C71.4101 147.64 66.6244 143.648 62.5038 140.216C58.3832 136.783 54.9658 133.896 54.9097 133.799C54.8536 133.702 57.0206 131.783 59.725 129.535C62.4293 127.287 67.9417 122.696 71.9746 119.332C76.0074 115.969 81.9257 111.035 85.1264 108.367C91.883 102.736 93.6946 101.217 93.8555 101.051C93.9195 100.985 94.8623 100.204 95.9505 99.3169C97.0387 98.4294 97.9815 97.6464 98.0455 97.577C98.1095 97.508 100.047 95.8819 102.352 93.9636C104.656 92.0454 107.956 89.294 109.684 87.849C111.413 86.4039 115.864 82.6915 119.577 79.5991C133.555 67.9563 139.941 62.6278 141.146 61.6023C141.83 61.0205 145.06 58.3214 148.325 55.6048C151.59 52.8881 156.146 49.0901 158.451 47.1648C160.755 45.2395 164.893 41.7926 167.645 39.5055C170.398 37.2183 172.703 35.2935 172.767 35.2281C172.935 35.0561 175.099 33.2442 179.502 29.5906C181.623 27.8305 183.391 26.297 183.432 26.1829C183.512 25.9569 169.933 -0.0136707 169.741 5.39944e-06C169.677 0.00464135 169.348 0.23922 169.01 0.52155Z" fill="#46A3FF"/>
<path d="M395.2 204.2C395.2 213.933 397.333 221.933 401.6 228.2C405.867 234.333 412.867 237.4 422.6 237.4C426.6 237.4 430.733 236.867 435 235.8C439.4 234.733 444.8 232.933 451.2 230.4L458.6 251.2C451.4 254.4 444.733 256.667 438.6 258C432.6 259.333 426.8 260 421.2 260C410 260 400.6 257.6 393 252.8C385.533 248 379.933 241.4 376.2 233C372.467 224.6 370.6 215 370.6 204.2V175.6C370.6 164.8 372.467 155.2 376.2 146.8C379.933 138.4 385.533 131.867 393 127.2C400.6 122.4 410 120 421.2 120C426.667 120 432.333 120.667 438.2 122C444.067 123.2 450.467 125.333 457.4 128.4L450 149.6C443.867 147.067 438.733 145.267 434.6 144.2C430.467 143.133 426.467 142.6 422.6 142.6C412.867 142.6 405.867 145.667 401.6 151.8C397.333 157.933 395.2 165.867 395.2 175.6V204.2ZM578.859 175.6V204.2C578.859 221.533 574.526 235.2 565.859 245.2C557.193 255.067 544.526 260 527.859 260C511.059 260 498.326 255.067 489.659 245.2C481.126 235.2 476.859 221.533 476.859 204.2V175.6C476.859 158.267 481.126 144.667 489.659 134.8C498.326 124.933 511.059 120 527.859 120C544.526 120 557.193 124.933 565.859 134.8C574.526 144.667 578.859 158.267 578.859 175.6ZM554.259 175.6C554.259 164.667 552.126 156.467 547.859 151C543.593 145.4 536.926 142.6 527.859 142.6C518.793 142.6 512.126 145.4 507.859 151C503.593 156.467 501.459 164.667 501.459 175.6V204.2C501.459 215.133 503.593 223.4 507.859 229C512.126 234.6 518.793 237.4 527.859 237.4C536.926 237.4 543.593 234.6 547.859 229C552.126 223.4 554.259 215.133 554.259 204.2V175.6ZM610.589 258V122H656.589C672.856 122 685.256 126.533 693.789 135.6C702.322 144.667 706.589 158 706.589 175.6V204.2C706.589 221.933 702.322 235.333 693.789 244.4C685.256 253.467 672.856 258 656.589 258H610.589ZM655.589 145H634.589V235H655.589C665.056 235 671.789 232.667 675.789 228C679.922 223.333 681.989 215.4 681.989 204.2V175.6C681.989 164.533 679.922 156.667 675.789 152C671.789 147.333 665.056 145 655.589 145ZM817.123 235V258H738.323V122H815.123V145H762.323V177.6H809.123V200.6H762.323V235H817.123ZM869.55 208V258H845.55V122H890.95C904.683 122 915.217 125.533 922.55 132.6C930.017 139.533 933.75 148.867 933.75 160.6V169.2C933.75 176.933 932.083 183.733 928.75 189.6C925.417 195.467 920.617 199.933 914.35 203C925.283 221.667 934.617 240 942.35 258H914.95C908.283 241.333 900.35 224.667 891.15 208H869.55ZM890.95 144H869.55V186H890.95C896.817 186 901.283 184.533 904.35 181.6C907.55 178.533 909.15 174.4 909.15 169.2V160.6C909.15 155.533 907.55 151.533 904.35 148.6C901.283 145.533 896.817 144 890.95 144ZM1097.46 249.2C1094.13 251.2 1088.6 253.533 1080.86 256.2C1073.26 258.733 1064.33 260 1054.06 260C1042.46 260 1032.73 257.6 1024.86 252.8C1017.13 248 1011.26 241.4 1007.26 233C1003.26 224.6 1001.26 215 1001.26 204.2V175.6C1001.26 164.533 1003.26 154.867 1007.26 146.6C1011.26 138.2 1017.2 131.667 1025.06 127C1033.06 122.333 1043.06 120 1055.06 120C1060.93 120 1067 120.667 1073.26 122C1079.53 123.2 1086.4 125.467 1093.86 128.8L1086.46 149.8C1079.93 147.267 1074.26 145.467 1069.46 144.4C1064.8 143.2 1060.13 142.6 1055.46 142.6C1045.06 142.6 1037.53 145.6 1032.86 151.6C1028.2 157.467 1025.86 165.467 1025.86 175.6V204.2C1025.86 213.8 1028.2 221.667 1032.86 227.8C1037.66 233.933 1045.13 237 1055.26 237C1058.33 237 1061.66 236.733 1065.26 236.2C1068.86 235.667 1072.33 234.933 1075.66 234V204.2H1053.66V183.2H1097.46V249.2ZM1124.77 122H1149.37V209.2C1149.37 218 1151.31 224.933 1155.17 230C1159.04 234.933 1165.24 237.4 1173.77 237.4C1182.31 237.4 1188.51 234.933 1192.37 230C1196.24 224.933 1198.17 218 1198.17 209.2V122H1222.77V209.2C1222.77 224.533 1218.71 236.867 1210.57 246.2C1202.44 255.4 1190.17 260 1173.77 260C1157.24 260 1144.91 255.4 1136.77 246.2C1128.77 236.867 1124.77 224.533 1124.77 209.2V122ZM1286.87 237.8C1302.34 237.8 1310.07 232.067 1310.07 220.6C1310.07 215.933 1308.87 212.267 1306.47 209.6C1304.2 206.933 1299.94 204.6 1293.67 202.6L1277.27 197.2C1257.67 190.8 1247.87 177.933 1247.87 158.6C1247.87 147.4 1251.34 138.2 1258.27 131C1265.34 123.667 1276.34 120 1291.27 120C1297.54 120 1303.74 120.733 1309.87 122.2C1316 123.533 1322.54 125.733 1329.47 128.8L1322.07 149.4C1315.67 146.867 1310.2 145.067 1305.67 144C1301.27 142.8 1296.74 142.2 1292.07 142.2C1285.94 142.2 1281.07 143.333 1277.47 145.6C1274 147.733 1272.27 151.667 1272.27 157.4C1272.27 161.667 1273.47 165.2 1275.87 168C1278.4 170.667 1282.54 172.933 1288.27 174.8L1304.67 180.2C1314.54 183.533 1321.94 188.4 1326.87 194.8C1331.94 201.067 1334.47 209.4 1334.47 219.8C1334.47 231.8 1330.67 241.533 1323.07 249C1315.47 256.333 1303.54 260 1287.27 260C1280.87 260 1274.2 259.267 1267.27 257.8C1260.47 256.2 1253 253.533 1244.87 249.8L1252.27 229.2C1259.74 232.4 1266.07 234.667 1271.27 236C1276.6 237.2 1281.8 237.8 1286.87 237.8ZM1344.58 145V122H1444.58V145H1406.58V258H1382.58V145H1344.58ZM1525.37 258L1516.97 231.4H1470.37L1461.97 258H1438.17L1483.57 122H1504.77L1550.37 258H1525.37ZM1483.37 189.8L1477.17 209.4H1509.97L1503.77 189.8L1493.77 155.4L1483.37 189.8ZM1659.3 122L1616.1 258H1591.5L1548.1 122H1574.5L1595.1 190.4L1604.5 225.6L1614.5 190.2L1634.9 122H1659.3ZM1774.17 175.6V204.2C1774.17 221.533 1769.84 235.2 1761.17 245.2C1752.51 255.067 1739.84 260 1723.17 260C1706.37 260 1693.64 255.067 1684.97 245.2C1676.44 235.2 1672.17 221.533 1672.17 204.2V175.6C1672.17 158.267 1676.44 144.667 1684.97 134.8C1693.64 124.933 1706.37 120 1723.17 120C1739.84 120 1752.51 124.933 1761.17 134.8C1769.84 144.667 1774.17 158.267 1774.17 175.6ZM1749.57 175.6C1749.57 164.667 1747.44 156.467 1743.17 151C1738.91 145.4 1732.24 142.6 1723.17 142.6C1714.11 142.6 1707.44 145.4 1703.17 151C1698.91 156.467 1696.77 164.667 1696.77 175.6V204.2C1696.77 215.133 1698.91 223.4 1703.17 229C1707.44 234.6 1714.11 237.4 1723.17 237.4C1732.24 237.4 1738.91 234.6 1743.17 229C1747.44 223.4 1749.57 215.133 1749.57 204.2V175.6Z" fill="#46A3FF"/>
</svg>
